<svg width="72" height="72" viewBox="0 0 72 72" fill="none" xmlns="http://www.w3.org/2000/svg">
<g clip-path="url(#clip0_626_28028)">
<path d="M36 72C55.8494 72 72 55.8508 72 36C72 32.5737 71.5217 29.1973 70.5747 25.9636C70.1082 24.3735 68.4478 23.4602 66.8533 23.9268C65.2617 24.3918 64.3513 26.0581 64.8164 27.6482C65.6008 30.3347 66 33.1458 66 36C66 52.5417 52.5417 66 36 66C19.4583 66 6 52.5417 6 36C6 19.4583 19.4583 6 36 6C42.0117 6 47.7957 7.75781 52.7263 11.0823C54.0989 12.0088 55.9651 11.6448 56.8901 10.2722C57.8159 8.89819 57.4548 7.03345 56.0808 6.10767C50.1555 2.1123 43.2122 0 36 0C16.1506 0 0 16.1492 0 36C0 55.8508 16.1506 72 36 72Z" fill="#32C997"/>
<path d="M66.8784 6.87836L35.9995 37.7558L26.1205 27.8784C24.9487 26.7072 23.0502 26.7072 21.8784 27.8784C20.7072 29.0502 20.7072 30.9487 21.8784 32.1205L33.8784 44.1205C34.465 44.7072 35.2311 44.9995 35.9995 44.9995C36.7678 44.9995 37.5339 44.7072 38.1205 44.1205L71.1205 11.1205C72.2917 9.94867 72.2917 8.05023 71.1205 6.87836C69.9487 5.70721 68.0502 5.70721 66.8784 6.87836Z" fill="#32C997"/>
</g>
<defs>
<clipPath id="clip0_626_28028">
<rect width="72" height="72" fill="white"/>
</clipPath>
</defs>
</svg>
