<svg width="34" height="39" viewBox="0 0 34 39" fill="none" xmlns="http://www.w3.org/2000/svg">
<path d="M29.815 13.2C29.7312 9.83537 28.3357 6.63673 25.9264 4.28667C23.5171 1.9366 20.2847 0.621216 16.919 0.621216C13.5533 0.621216 10.321 1.9366 7.91162 4.28667C5.50229 6.63673 4.10682 9.83537 4.02301 13.2C3.50893 13.2387 3.00769 13.3793 2.54841 13.6135C2.08913 13.8477 1.68098 14.1708 1.34768 14.5641C1.01439 14.9574 0.762595 15.413 0.606945 15.9045C0.451295 16.396 0.394893 16.9135 0.441013 17.427V24.162C0.395905 24.7382 0.476185 25.3173 0.676329 25.8594C0.876472 26.4016 1.19172 26.894 1.60038 27.3026C2.00904 27.7113 2.5014 28.0265 3.04357 28.2267C3.58574 28.4268 4.16484 28.5071 4.74101 28.462H6.81901C7.00891 28.462 7.19102 28.3866 7.3253 28.2523C7.45958 28.118 7.53501 27.9359 7.53501 27.746V13.87C7.53501 13.6801 7.45958 13.498 7.3253 13.3637C7.19102 13.2294 7.00891 13.154 6.81901 13.154H5.46001C5.46001 10.1137 6.66777 7.1979 8.81759 5.04807C10.9674 2.89825 13.8832 1.69049 16.9235 1.69049C19.9638 1.69049 22.8796 2.89825 25.0294 5.04807C27.1793 7.1979 28.387 10.1137 28.387 13.154H27.021C26.8311 13.154 26.649 13.2294 26.5147 13.3637C26.3804 13.498 26.305 13.6801 26.305 13.87V27.719C26.305 27.9089 26.3804 28.091 26.5147 28.2253C26.649 28.3596 26.8311 28.435 27.021 28.435H28.382C28.182 33.357 25.817 34.511 21.096 34.718V34.238C21.0959 34.0496 21.0586 33.8632 20.9864 33.6892C20.9141 33.5153 20.8083 33.3573 20.6749 33.2243C20.5415 33.0913 20.3832 32.9859 20.2091 32.9141C20.0349 32.8423 19.8484 32.8056 19.66 32.806H15.16C14.78 32.806 14.4155 32.957 14.1467 33.2257C13.878 33.4944 13.727 33.8589 13.727 34.239V36.567C13.727 36.947 13.878 37.3115 14.1467 37.5803C14.4155 37.849 14.78 38 15.16 38H19.681C20.0611 38 20.4256 37.849 20.6943 37.5803C20.963 37.3115 21.114 36.947 21.114 36.567V36.151C25.656 35.943 29.583 35.005 29.814 28.392C30.3281 28.3532 30.8293 28.2127 31.2886 27.9785C31.7479 27.7443 32.156 27.4212 32.4893 27.0279C32.8226 26.6346 33.0744 26.1789 33.2301 25.6875C33.3857 25.196 33.4421 24.6785 33.396 24.165V17.431C33.4435 16.9171 33.3882 16.3989 33.2331 15.9067C33.0781 15.4145 32.8266 14.9581 32.4932 14.5642C32.1598 14.1703 31.7512 13.8468 31.2914 13.6125C30.8316 13.3783 30.3297 13.2381 29.815 13.2ZM6.10001 14.536V27H4.70001C4.31337 27.0421 3.92221 26.9969 3.55535 26.8677C3.1885 26.7386 2.85529 26.5287 2.58028 26.2537C2.30526 25.9787 2.09545 25.6455 1.9663 25.2787C1.83715 24.9118 1.79194 24.5206 1.83401 24.134V17.4C1.79194 17.0133 1.83715 16.6222 1.9663 16.2553C2.09545 15.8885 2.30526 15.5553 2.58028 15.2803C2.85529 15.0052 3.1885 14.7954 3.55535 14.6663C3.92221 14.5371 4.31337 14.4919 4.70001 14.534L6.10001 14.536ZM19.677 35.485V36.574H15.16V34.246H19.681L19.677 35.485ZM31.96 24.158C32.0021 24.5446 31.9569 24.9358 31.8277 25.3027C31.6986 25.6695 31.4888 26.0027 31.2137 26.2777C30.9387 26.5527 30.6055 26.7626 30.2387 26.8917C29.8718 27.0209 29.4807 27.0661 29.094 27.024H27.737V14.586H29.137C29.5237 14.5439 29.9148 14.5891 30.2817 14.7183C30.6485 14.8474 30.9817 15.0572 31.2567 15.3323C31.5318 15.6073 31.7416 15.9405 31.8707 16.3073C31.9999 16.6742 32.0451 17.0653 32.003 17.452L31.96 24.158Z" fill="#FF3374" stroke="#FF3374" stroke-width="0.5"/>
</svg>
