<svg width="26" height="35" viewBox="0 0 26 35" fill="none" xmlns="http://www.w3.org/2000/svg">
<path d="M22.6171 34.5H3.49214C2.64704 34.4992 1.83678 34.1632 1.23911 33.5657C0.641447 32.9683 0.305197 32.1581 0.304138 31.313L0.304138 16.438C0.304932 15.5927 0.641065 14.7823 1.23876 14.1846C1.83645 13.5869 2.64687 13.2508 3.49214 13.25H22.6171C23.4624 13.2508 24.2728 13.5869 24.8705 14.1846C25.4682 14.7823 25.8043 15.5927 25.8051 16.438V31.313C25.8041 32.1581 25.4678 32.9683 24.8702 33.5657C24.2725 34.1632 23.4622 34.4992 22.6171 34.5ZM3.49214 15.375C3.21047 15.3755 2.9405 15.4877 2.74142 15.687C2.54234 15.8863 2.4304 16.1563 2.43014 16.438V31.313C2.4304 31.5948 2.54248 31.8651 2.74178 32.0644C2.94107 32.2637 3.21129 32.3757 3.49314 32.376H22.6171C22.8988 32.3757 23.1689 32.2638 23.3681 32.0647C23.5674 31.8656 23.6796 31.5957 23.6801 31.314V16.438C23.6796 16.1565 23.5676 15.8867 23.3685 15.6876C23.1695 15.4886 22.8996 15.3765 22.6181 15.376L3.49214 15.375Z" fill="#FF3374"/>
<path d="M20.4921 15.375C20.2106 15.3747 19.9406 15.2628 19.7415 15.0637C19.5424 14.8645 19.4304 14.5946 19.4301 14.313V9C19.4301 7.30925 18.7585 5.68774 17.563 4.49219C16.3674 3.29665 14.7459 2.625 13.0551 2.625C11.3644 2.625 9.74288 3.29665 8.54734 4.49219C7.3518 5.68774 6.68015 7.30925 6.68015 9V14.313C6.67167 14.5892 6.55601 14.8512 6.35768 15.0435C6.15935 15.2358 5.89393 15.3434 5.61765 15.3434C5.34137 15.3434 5.07594 15.2358 4.87761 15.0435C4.67928 14.8512 4.56362 14.5892 4.55515 14.313V9C4.55515 6.74566 5.45068 4.58365 7.04474 2.98959C8.6388 1.39553 10.8008 0.5 13.0551 0.5C15.3095 0.5 17.4715 1.39553 19.0656 2.98959C20.6596 4.58365 21.5551 6.74566 21.5551 9V14.313C21.5549 14.5948 21.4428 14.8649 21.2434 15.064C21.0441 15.2631 20.7739 15.375 20.4921 15.375Z" fill="#FF3374"/>
</svg>
