<svg width="45" height="39" viewBox="0 0 45 39" fill="none" xmlns="http://www.w3.org/2000/svg">
<path d="M27.9712 31.196H17.4602C17.2953 31.196 17.1371 31.1305 17.0204 31.0139C16.9038 30.8972 16.8382 30.739 16.8382 30.574C16.8382 30.4091 16.9038 30.2509 17.0204 30.1342C17.1371 30.0176 17.2953 29.952 17.4602 29.952H27.9712C28.1857 29.9532 28.3982 29.9119 28.5966 29.8306C28.795 29.7492 28.9753 29.6294 29.1272 29.478C29.1552 29.45 29.1792 29.423 29.2022 29.398C29.2145 29.379 29.2279 29.3606 29.2422 29.343C29.4841 29.0517 29.6161 28.6847 29.6152 28.306C29.6147 27.8697 29.4411 27.4513 29.1325 27.1427C28.824 26.8341 28.4056 26.6606 27.9692 26.66H22.0962C22.0099 26.6605 21.9244 26.6429 21.8452 26.6085C21.766 26.574 21.6948 26.5235 21.6362 26.46C20.8525 25.5996 19.8979 24.9122 18.8334 24.4416C17.769 23.971 16.6181 23.7276 15.4542 23.727H7.90822C7.74326 23.727 7.58505 23.6615 7.4684 23.5449C7.35176 23.4282 7.28622 23.27 7.28622 23.105C7.28622 22.9401 7.35176 22.7819 7.4684 22.6652C7.58505 22.5486 7.74326 22.483 7.90822 22.483H15.4592C16.7494 22.4839 18.0263 22.7444 19.2138 23.2489C20.4012 23.7535 21.475 24.4919 22.3712 25.42H27.9712C28.7374 25.4208 29.472 25.7254 30.0139 26.267C30.5558 26.8085 30.8609 27.5429 30.8622 28.309C30.8626 28.9544 30.6448 29.581 30.2442 30.087C30.2285 30.1127 30.2108 30.1371 30.1912 30.16C30.1292 30.23 30.0752 30.293 30.0112 30.36C29.7438 30.6287 29.4259 30.8418 29.0758 30.987C28.7257 31.1322 28.3503 31.2066 27.9712 31.206V31.196Z" fill="#FF3374" stroke="#FF3374" stroke-width="0.5"/>
<path d="M22.6922 38.556C21.1579 38.5574 19.635 38.2911 18.1922 37.769L7.69223 33.955C7.6154 33.9271 7.54483 33.8844 7.48453 33.8292C7.42423 33.774 7.3754 33.7075 7.34081 33.6334C7.30622 33.5594 7.28655 33.4792 7.28294 33.3976C7.27932 33.3159 7.29182 33.2344 7.31972 33.1575C7.34763 33.0807 7.39039 33.0101 7.44558 32.9498C7.50076 32.8895 7.56727 32.8407 7.64133 32.8061C7.71538 32.7715 7.79553 32.7519 7.87718 32.7482C7.95883 32.7446 8.0404 32.7571 8.11723 32.785L18.6172 36.6C20.1616 37.1562 21.8035 37.3906 23.4418 37.289C25.0801 37.1874 26.6804 36.7518 28.1442 36.009L42.3972 28.73C41.6269 28.1147 40.7118 27.707 39.7392 27.5458C38.7666 27.3846 37.7689 27.4752 36.8412 27.809L30.0082 30.296C29.9191 30.3441 29.8195 30.3692 29.7182 30.369C29.5924 30.3703 29.4692 30.3334 29.3649 30.2632C29.2605 30.1929 29.1799 30.0927 29.1336 29.9758C29.0874 29.8588 29.0777 29.7305 29.1058 29.6079C29.1339 29.4853 29.1986 29.3741 29.2912 29.289C29.3534 29.2299 29.4273 29.1846 29.5082 29.156L36.4222 26.639C37.5813 26.2222 38.8296 26.1177 40.0418 26.3361C41.2541 26.5545 42.3875 27.088 43.3282 27.883L43.9152 28.392C43.9922 28.4587 44.0517 28.5433 44.0883 28.6383C44.125 28.7333 44.1378 28.8359 44.1255 28.937C44.1133 29.0381 44.0764 29.1347 44.0181 29.2182C43.9598 29.3017 43.8819 29.3697 43.7912 29.416L28.7082 37.117C26.844 38.0632 24.7828 38.5563 22.6922 38.556Z" fill="#FF3374" stroke="#FF3374" stroke-width="0.5"/>
<path d="M7.90222 35.716H1.20222C1.12037 35.7162 1.0393 35.7001 0.963657 35.6689C0.888012 35.6376 0.81928 35.5917 0.761403 35.5339C0.703526 35.476 0.657641 35.4073 0.626379 35.3316C0.595117 35.256 0.579093 35.1749 0.579224 35.093V21.546C0.579224 21.3811 0.644756 21.2229 0.761404 21.1062C0.878052 20.9896 1.03626 20.924 1.20122 20.924H7.90122C8.06619 20.924 8.2244 20.9896 8.34105 21.1062C8.45769 21.2229 8.52322 21.3811 8.52322 21.546V35.093C8.52336 35.1747 8.5074 35.2556 8.47626 35.3311C8.44512 35.4067 8.39942 35.4753 8.34175 35.5332C8.28409 35.591 8.21559 35.6369 8.14018 35.6683C8.06476 35.6997 7.98391 35.7159 7.90222 35.716ZM1.82322 34.471H7.27922V22.171H1.82322V34.471Z" fill="#FF3374" stroke="#FF3374" stroke-width="0.5"/>
<path d="M28.2662 22.686C26.0708 22.686 23.9248 22.035 22.0994 20.8153C20.274 19.5957 18.8513 17.8621 18.0112 15.8338C17.171 13.8056 16.9512 11.5737 17.3795 9.42053C17.8078 7.26734 18.865 5.28951 20.4173 3.73714C21.9697 2.18478 23.9475 1.12761 26.1007 0.699311C28.2539 0.271015 30.4857 0.490833 32.514 1.33097C34.5423 2.1711 36.2758 3.59381 37.4955 5.4192C38.7152 7.24458 39.3662 9.39066 39.3662 11.586C39.3662 13.0437 39.0791 14.4871 38.5213 15.8338C37.9635 17.1805 37.1458 18.4042 36.1151 19.4349C35.0844 20.4656 33.8607 21.2833 32.514 21.8411C31.1673 22.3989 29.7239 22.686 28.2662 22.686ZM28.2662 1.73903C26.3179 1.73903 24.4133 2.31678 22.7933 3.39922C21.1733 4.48166 19.9107 6.02018 19.1651 7.82021C18.4195 9.62025 18.2244 11.601 18.6045 13.5119C18.9846 15.4228 19.9228 17.178 21.3005 18.5557C22.6782 19.9334 24.4335 20.8716 26.3444 21.2517C28.2553 21.6318 30.236 21.4368 32.036 20.6912C33.8361 19.9456 35.3746 18.6829 36.457 17.063C37.5395 15.443 38.1172 13.5384 38.1172 11.59C38.1172 8.97738 37.0794 6.47174 35.2319 4.62432C33.3845 2.7769 30.8789 1.73903 28.2662 1.73903Z" fill="#FF3374" stroke="#FF3374" stroke-width="0.5"/>
<path d="M28.2662 12.213C27.5963 12.192 26.9473 11.9741 26.4005 11.5866C25.8536 11.199 25.4329 10.659 25.1911 10.0339C24.9492 9.40872 24.8969 8.7262 25.0405 8.07148C25.1842 7.41677 25.5175 6.81887 25.9988 6.35242C26.4802 5.88597 27.0883 5.57163 27.7472 5.44864C28.4061 5.32566 29.0866 5.39947 29.7038 5.66087C30.3211 5.92227 30.8476 6.35967 31.2178 6.91848C31.5879 7.47729 31.7853 8.13275 31.7852 8.80304C31.7852 8.968 31.7197 9.12621 31.603 9.24286C31.4864 9.35951 31.3282 9.42504 31.1632 9.42504C30.9983 9.42504 30.8401 9.35951 30.7234 9.24286C30.6068 9.12621 30.5412 8.968 30.5412 8.80304C30.5636 8.34826 30.4492 7.89721 30.2128 7.50809C29.9763 7.11897 29.6287 6.80963 29.2147 6.62C28.8007 6.43037 28.3395 6.36914 27.8904 6.44422C27.4413 6.5193 27.025 6.72724 26.6952 7.04121C26.3654 7.35518 26.1373 7.76077 26.0403 8.20564C25.9433 8.65051 25.9818 9.11425 26.1509 9.53702C26.32 9.95978 26.6119 10.3222 26.9889 10.5774C27.366 10.8327 27.8109 10.9691 28.2662 10.969C28.3479 10.969 28.4288 10.9851 28.5043 11.0164C28.5797 11.0476 28.6483 11.0935 28.706 11.1512C28.7638 11.209 28.8096 11.2775 28.8409 11.353C28.8721 11.4285 28.8882 11.5094 28.8882 11.591C28.8882 11.6727 28.8721 11.7536 28.8409 11.8291C28.8096 11.9045 28.7638 11.9731 28.706 12.0309C28.6483 12.0886 28.5797 12.1344 28.5043 12.1657C28.4288 12.197 28.3479 12.213 28.2662 12.213Z" fill="#FF3374" stroke="#FF3374" stroke-width="0.5"/>
<path d="M28.2662 17.793C27.3478 17.8061 26.4616 17.4545 25.8019 16.8153C25.1423 16.1761 24.763 15.3014 24.7472 14.383C24.7472 14.2181 24.8128 14.0598 24.9294 13.9432C25.046 13.8265 25.2043 13.761 25.3692 13.761C25.5342 13.761 25.6924 13.8265 25.809 13.9432C25.9257 14.0598 25.9912 14.2181 25.9912 14.383C25.9686 14.8378 26.0829 15.289 26.3192 15.6782C26.5555 16.0675 26.9031 16.377 27.317 16.5667C27.7309 16.7565 28.1922 16.8179 28.6414 16.7429C29.0906 16.668 29.5069 16.4601 29.8368 16.1462C30.1667 15.8323 30.3949 15.4267 30.492 14.9818C30.5891 14.5369 30.5507 14.0731 30.3816 13.6503C30.2126 13.2275 29.9207 12.865 29.5436 12.6097C29.1665 12.3544 28.7216 12.218 28.2662 12.218C28.1013 12.218 27.943 12.1525 27.8264 12.0358C27.7098 11.9192 27.6442 11.761 27.6442 11.596C27.6442 11.4311 27.7098 11.2728 27.8264 11.1562C27.943 11.0395 28.1013 10.974 28.2662 10.974C28.7239 10.9583 29.18 11.0349 29.6074 11.1993C30.0348 11.3636 30.4247 11.6122 30.754 11.9304C31.0833 12.2486 31.3452 12.6298 31.524 13.0514C31.7029 13.4729 31.795 13.9261 31.795 14.384C31.795 14.8419 31.7029 15.2951 31.524 15.7167C31.3452 16.1382 31.0833 16.5194 30.754 16.8376C30.4247 17.1558 30.0348 17.4045 29.6074 17.5688C29.18 17.7331 28.7239 17.8097 28.2662 17.794V17.793Z" fill="#FF3374" stroke="#FF3374" stroke-width="0.5"/>
<path d="M28.2662 18.839C28.1013 18.839 27.9431 18.7735 27.8264 18.6568C27.7098 18.5402 27.6442 18.382 27.6442 18.217V4.97103C27.6442 4.88935 27.6603 4.80846 27.6916 4.733C27.7228 4.65754 27.7686 4.58897 27.8264 4.53121C27.8842 4.47345 27.9527 4.42763 28.0282 4.39638C28.1037 4.36512 28.1845 4.34903 28.2662 4.34903C28.3479 4.34903 28.4288 4.36512 28.5043 4.39638C28.5797 4.42763 28.6483 4.47345 28.706 4.53121C28.7638 4.58897 28.8096 4.65754 28.8409 4.733C28.8721 4.80846 28.8882 4.88935 28.8882 4.97103V18.217C28.8882 18.382 28.8227 18.5402 28.706 18.6568C28.5894 18.7735 28.4312 18.839 28.2662 18.839Z" fill="#FF3374" stroke="#FF3374" stroke-width="0.5"/>
</svg>
