<svg width="49" height="32" viewBox="0 0 49 32" fill="none" xmlns="http://www.w3.org/2000/svg">
<path d="M45.189 13.823L43.959 8.90102C44.1255 8.86555 44.2749 8.77401 44.3821 8.6417C44.4893 8.50939 44.5478 8.34431 44.548 8.17403V7.38003C44.5472 6.55147 44.2177 5.75708 43.6318 5.1712C43.046 4.58532 42.2516 4.25582 41.423 4.25503H35.823V2.62302C35.8227 2.2152 35.6606 1.82416 35.3722 1.53579C35.0839 1.24742 34.6928 1.08529 34.285 1.08502H5.712C5.30418 1.08529 4.91314 1.24742 4.62476 1.53579C4.33639 1.82416 4.17426 2.2152 4.174 2.62302V16.113C4.174 16.3103 4.25239 16.4996 4.39191 16.6391C4.53144 16.7786 4.72068 16.857 4.918 16.857C5.11532 16.857 5.30456 16.7786 5.44409 16.6391C5.58361 16.4996 5.662 16.3103 5.662 16.113V2.62302C5.662 2.60976 5.66727 2.59705 5.67664 2.58767C5.68602 2.57829 5.69874 2.57303 5.712 2.57303H34.28C34.2933 2.57303 34.306 2.57829 34.3154 2.58767C34.3247 2.59705 34.33 2.60976 34.33 2.62302V16.114C34.33 16.3113 34.4084 16.5006 34.5479 16.6401C34.6874 16.7796 34.8767 16.858 35.074 16.858C35.2713 16.858 35.4606 16.7796 35.6001 16.6401C35.7396 16.5006 35.818 16.3113 35.818 16.114V15.271H44.6C45.114 15.2721 45.6145 15.4357 46.0298 15.7386C46.4451 16.0414 46.7539 16.4679 46.912 16.957H44.6C44.4027 16.957 44.2134 17.0354 44.0739 17.1749C43.9344 17.3145 43.856 17.5037 43.856 17.701V19.288C43.8568 19.906 44.1026 20.4984 44.5396 20.9354C44.9766 21.3724 45.569 21.6182 46.187 21.619H47.03V24.892H45.082C44.7626 23.9651 44.1619 23.161 43.3636 22.5918C42.5654 22.0225 41.6094 21.7166 40.629 21.7166C39.6486 21.7166 38.6926 22.0225 37.8944 22.5918C37.0961 23.161 36.4954 23.9651 36.176 24.892H35.818V19.292C35.818 19.0947 35.7396 18.9055 35.6001 18.7659C35.4606 18.6264 35.2713 18.548 35.074 18.548C34.8767 18.548 34.6874 18.6264 34.5479 18.7659C34.4084 18.9055 34.33 19.0947 34.33 19.292V24.892H18.894C18.5746 23.9651 17.9739 23.161 17.1756 22.5918C16.3774 22.0225 15.4214 21.7166 14.441 21.7166C13.4606 21.7166 12.5046 22.0225 11.7064 22.5918C10.9081 23.161 10.3074 23.9651 9.988 24.892H5.712C5.69874 24.892 5.68602 24.8868 5.67664 24.8774C5.66727 24.868 5.662 24.8553 5.662 24.842V23.205H8.886C9.08332 23.205 9.27256 23.1266 9.41209 22.9871C9.55161 22.8476 9.63 22.6583 9.63 22.461C9.63 22.2637 9.55161 22.0745 9.41209 21.9349C9.27256 21.7954 9.08332 21.717 8.886 21.717H1.744C1.54668 21.717 1.35744 21.7954 1.21791 21.9349C1.07839 22.0745 1 22.2637 1 22.461C1 22.6583 1.07839 22.8476 1.21791 22.9871C1.35744 23.1266 1.54668 23.205 1.744 23.205H4.174V24.842C4.17426 25.2498 4.33639 25.6409 4.62476 25.9293C4.91314 26.2176 5.30418 26.3798 5.712 26.38H9.731C9.731 26.397 9.731 26.413 9.731 26.43C9.731 27.6797 10.2274 28.8782 11.1111 29.7619C11.9948 30.6456 13.1933 31.142 14.443 31.142C15.6927 31.142 16.8912 30.6456 17.7749 29.7619C18.6586 28.8782 19.155 27.6797 19.155 26.43C19.155 26.413 19.155 26.397 19.155 26.38H35.918C35.918 26.397 35.918 26.413 35.918 26.43C35.918 27.6797 36.4144 28.8782 37.2981 29.7619C38.1818 30.6456 39.3803 31.142 40.63 31.142C41.8797 31.142 43.0782 30.6456 43.9619 29.7619C44.8456 28.8782 45.342 27.6797 45.342 26.43C45.342 26.413 45.342 26.397 45.342 26.38H47.774C47.9713 26.38 48.1606 26.3016 48.3001 26.1621C48.4396 26.0226 48.518 25.8333 48.518 25.636V17.7C48.5176 16.7627 48.1817 15.8565 47.5711 15.1454C46.9605 14.4342 46.1155 13.9652 45.189 13.823ZM35.818 5.74303H41.418C41.852 5.74356 42.2681 5.91619 42.5749 6.22308C42.8818 6.52996 43.0545 6.94603 43.055 7.38003V7.43002H35.818V5.74303ZM35.818 13.778V8.92303H42.429L43.644 13.784L35.818 13.778ZM14.441 29.654C13.8034 29.654 13.18 29.4649 12.6498 29.1107C12.1197 28.7564 11.7064 28.2529 11.4624 27.6638C11.2184 27.0747 11.1545 26.4265 11.2789 25.8011C11.4033 25.1757 11.7104 24.6012 12.1613 24.1503C12.6122 23.6994 13.1866 23.3924 13.812 23.268C14.4374 23.1436 15.0857 23.2074 15.6748 23.4514C16.2639 23.6955 16.7674 24.1087 17.1217 24.6389C17.4759 25.1691 17.665 25.7924 17.665 26.43C17.6642 27.2848 17.3243 28.1044 16.7198 28.7089C16.1154 29.3133 15.2958 29.6532 14.441 29.654ZM40.629 29.654C39.9914 29.654 39.368 29.4649 38.8378 29.1107C38.3077 28.7564 37.8944 28.2529 37.6504 27.6638C37.4064 27.0747 37.3426 26.4265 37.4669 25.8011C37.5913 25.1757 37.8984 24.6012 38.3493 24.1503C38.8002 23.6994 39.3746 23.3924 40 23.268C40.6254 23.1436 41.2737 23.2074 41.8628 23.4514C42.4519 23.6955 42.9554 24.1087 43.3097 24.6389C43.6639 25.1691 43.853 25.7924 43.853 26.43C43.8522 27.2848 43.5123 28.1044 42.9078 28.7089C42.3034 29.3133 41.4838 29.6532 40.629 29.654ZM47.029 20.131H46.186C45.9625 20.1308 45.7482 20.0419 45.5902 19.8838C45.4322 19.7258 45.3433 19.5115 45.343 19.288V18.445H47.029V20.131Z" fill="#FF3374" stroke="#FF3374" stroke-width="0.25"/>
<path d="M14.437 24.895C14.1328 24.895 13.8354 24.9852 13.5825 25.1542C13.3296 25.3232 13.1325 25.5634 13.0161 25.8445C12.8997 26.1255 12.8692 26.4347 12.9285 26.7331C12.9879 27.0314 13.1344 27.3054 13.3495 27.5205C13.5645 27.7356 13.8386 27.8821 14.1369 27.9415C14.4353 28.0008 14.7445 27.9704 15.0256 27.8539C15.3066 27.7375 15.5468 27.5404 15.7158 27.2875C15.8848 27.0346 15.975 26.7372 15.975 26.433C15.9747 26.0252 15.8126 25.6341 15.5242 25.3458C15.2359 25.0574 14.8448 24.8953 14.437 24.895Z" fill="#FF3374" stroke="#FF3374" stroke-width="0.25"/>
<path d="M40.629 24.895C40.3248 24.8948 40.0274 24.9848 39.7743 25.1537C39.5213 25.3226 39.3239 25.5627 39.2074 25.8438C39.0908 26.1248 39.0602 26.434 39.1195 26.7325C39.1787 27.0309 39.3251 27.305 39.5401 27.5202C39.7552 27.7354 40.0293 27.882 40.3276 27.9414C40.626 28.0008 40.9353 27.9704 41.2164 27.854C41.4974 27.7377 41.7377 27.5405 41.9068 27.2876C42.0758 27.0347 42.166 26.7372 42.166 26.433C42.1658 26.0254 42.0038 25.6345 41.7156 25.3461C41.4275 25.0578 41.0367 24.8955 40.629 24.895Z" fill="#FF3374" stroke="#FF3374" stroke-width="0.25"/>
<path d="M31.9 21.718H20.79C20.5927 21.718 20.4035 21.7964 20.2639 21.9359C20.1244 22.0754 20.046 22.2647 20.046 22.462C20.046 22.6593 20.1244 22.8486 20.2639 22.9881C20.4035 23.1276 20.5927 23.206 20.79 23.206H31.9C32.0973 23.206 32.2866 23.1276 32.4261 22.9881C32.5656 22.8486 32.644 22.6593 32.644 22.462C32.644 22.2647 32.5656 22.0754 32.4261 21.9359C32.2866 21.7964 32.0973 21.718 31.9 21.718Z" fill="#FF3374" stroke="#FF3374" stroke-width="0.25"/>
<path d="M12.854 18.544H3.33098C3.13366 18.544 2.94441 18.6224 2.80489 18.762C2.66536 18.9015 2.58698 19.0907 2.58698 19.2881C2.58698 19.4854 2.66536 19.6746 2.80489 19.8141C2.94441 19.9537 3.13366 20.032 3.33098 20.032H12.854C13.0513 20.032 13.2405 19.9537 13.3801 19.8141C13.5196 19.6746 13.598 19.4854 13.598 19.2881C13.598 19.0907 13.5196 18.9015 13.3801 18.762C13.2405 18.6224 13.0513 18.544 12.854 18.544Z" fill="#FF3374" stroke="#FF3374" stroke-width="0.25"/>
<path d="M26.871 8.44403C26.7315 8.30456 26.5422 8.2262 26.345 8.2262C26.1477 8.2262 25.9585 8.30456 25.819 8.44403L19.203 15.06L15.761 11.618C15.6924 11.5469 15.6103 11.4901 15.5195 11.451C15.4287 11.4119 15.331 11.3914 15.2322 11.3905C15.1333 11.3896 15.0353 11.4084 14.9438 11.4458C14.8523 11.4832 14.7692 11.5385 14.6993 11.6084C14.6294 11.6782 14.5741 11.7614 14.5367 11.8529C14.4993 11.9444 14.4805 12.0424 14.4814 12.1412C14.4823 12.2401 14.5029 12.3377 14.542 12.4285C14.581 12.5193 14.6378 12.6014 14.709 12.67L18.677 16.638C18.8165 16.7775 19.0057 16.8559 19.203 16.8559C19.4003 16.8559 19.5895 16.7775 19.729 16.638L26.871 9.49603C27.0104 9.35651 27.0888 9.16731 27.0888 8.97003C27.0888 8.77275 27.0104 8.58355 26.871 8.44403Z" fill="#FF3374" stroke="#FF3374" stroke-width="0.25"/>
</svg>
